<svg width="98" height="42" viewBox="0 0 98 42" fill="none" xmlns="http://www.w3.org/2000/svg">
<path fill-rule="evenodd" clip-rule="evenodd" d="M68 3.65061C72.6134 3.65061 76.3458 7.39265 76.3458 12.0033C76.3458 16.6139 72.6069 20.3559 68 20.3559C63.3931 20.3559 59.6542 16.6139 59.6542 12.0033C59.6542 7.39265 63.3931 3.65061 68 3.65061ZM73.7423 8.58775C72.8679 7.11837 71.4388 5.98204 69.6444 5.5249C67.8564 5.06776 66.0555 5.38122 64.5873 6.25633C63.1191 7.13143 61.9837 8.56816 61.5269 10.351C61.0701 12.1404 61.3834 13.9429 62.2577 15.4122C63.1321 16.8816 64.5677 18.018 66.3491 18.4751C68.137 18.9257 69.938 18.6122 71.4062 17.7437C72.8744 16.8686 74.0098 15.4318 74.4666 13.6424C74.9233 11.8531 74.6036 10.0506 73.7357 8.58122L73.7423 8.58775ZM69.8662 4.66939C71.8891 5.18531 73.5139 6.47184 74.4992 8.13714C75.491 9.80245 75.8434 11.8465 75.3279 13.871C74.8124 15.8955 73.5269 17.5216 71.863 18.5143C70.199 19.5004 68.1566 19.8596 66.1338 19.3437C64.1109 18.8278 62.4861 17.5412 61.4943 15.8759C60.5024 14.2106 60.1501 12.1665 60.6656 10.142C61.1811 8.11755 62.4666 6.49143 64.1305 5.50531C65.7945 4.51265 67.8369 4.16 69.8597 4.67592L69.8662 4.66939ZM68 10.8473C68.6395 10.8473 69.155 11.3633 69.155 12.0033C69.155 12.6433 68.6395 13.1592 68 13.1592C67.3605 13.1592 66.845 12.6433 66.845 12.0033C66.845 11.3633 67.3605 10.8473 68 10.8473ZM68 9.16898C69.5661 9.16898 70.8385 10.4424 70.8385 12.0033C70.8385 13.5641 69.5726 14.8441 68 14.8441C66.4274 14.8441 65.168 13.5706 65.168 12.0033C65.168 10.4359 66.4405 9.16898 68 9.16898ZM79.5432 15.9412L80 14.1127L78.0685 13.1722C78.1664 12.3167 78.1599 11.4808 78.0424 10.658L79.9608 9.63918L79.4454 7.8302L77.292 7.98041C76.9527 7.21633 76.5285 6.49143 76.0131 5.83184L77.1746 3.97061L75.8238 2.66449L74.0163 3.88571C73.3573 3.40245 72.633 2.99755 71.8499 2.68408L71.9282 0.457143L70.1011 0L69.1224 1.99837C68.3002 1.91347 67.478 1.92653 66.6819 2.03755L65.6248 0.0391837L63.8173 0.555102L63.9739 2.81469C63.2365 3.14122 62.5449 3.55918 61.9054 4.04898L59.9608 2.82775L58.6558 4.17959L59.9347 6.07347C59.4715 6.71347 59.0734 7.40571 58.7667 8.15673L56.4568 8.07184L56 9.89388L58.062 10.9061C57.9706 11.7094 57.9837 12.5127 58.0816 13.2898L56.0392 14.3739L56.5546 16.1829L58.8385 16.0261C59.1582 16.7575 59.5628 17.4563 60.0457 18.0898L58.8254 20.0359L60.1762 21.342L62.0489 20.0816C62.6949 20.5584 63.3931 20.9633 64.1501 21.2833L64.0718 23.5429L65.8923 24L66.8711 21.9951C67.6998 22.0931 68.522 22.0865 69.3246 21.9951L70.3687 23.9673L72.1762 23.4514L72.0261 21.2702C72.7896 20.9437 73.5073 20.5192 74.1729 20.0163L76.0326 21.1853L77.3377 19.8335L76.137 18.0441C76.633 17.378 77.0506 16.6465 77.3768 15.8629L79.5432 15.9412Z" fill="#F9F9F9"/>
<path fill-rule="evenodd" clip-rule="evenodd" d="M32.5 25.8901C36.1523 25.8901 39.1071 28.8525 39.1071 32.5026C39.1071 36.1527 36.1471 39.1151 32.5 39.1151C28.8529 39.1151 25.8929 36.1527 25.8929 32.5026C25.8929 28.8525 28.8529 25.8901 32.5 25.8901ZM37.046 29.7986C36.3537 28.6354 35.2224 27.7358 33.8018 27.3739C32.3863 27.012 30.9606 27.2601 29.7983 27.9529C28.6359 28.6457 27.7371 29.7831 27.3755 31.1946C27.0139 32.6112 27.2618 34.0381 27.954 35.2014C28.6463 36.3646 29.7828 37.2642 31.193 37.6261C32.6085 37.9829 34.0343 37.7347 35.1966 37.0471C36.3589 36.3543 37.2577 35.2169 37.6194 33.8003C37.981 32.3837 37.7278 30.9567 37.0408 29.7935L37.046 29.7986ZM33.9774 26.6966C35.5788 27.105 36.8651 28.1235 37.6452 29.4419C38.4304 30.7603 38.7094 32.3785 38.3012 33.9812C37.8931 35.5839 36.8755 36.8713 35.5582 37.6571C34.2409 38.4378 32.624 38.7222 31.0226 38.3137C29.4212 37.9053 28.1349 36.8868 27.3496 35.5684C26.5644 34.2501 26.2855 32.6318 26.6936 31.0291C27.1017 29.4264 28.1194 28.139 29.4366 27.3584C30.7539 26.5725 32.3709 26.2933 33.9723 26.7018L33.9774 26.6966ZM32.5 31.5875C33.0063 31.5875 33.4144 31.9959 33.4144 32.5026C33.4144 33.0093 33.0063 33.4177 32.5 33.4177C31.9937 33.4177 31.5856 33.0093 31.5856 32.5026C31.5856 31.9959 31.9937 31.5875 32.5 31.5875ZM32.5 30.2588C33.7398 30.2588 34.7471 31.2669 34.7471 32.5026C34.7471 33.7382 33.745 34.7516 32.5 34.7516C31.255 34.7516 30.258 33.7434 30.258 32.5026C30.258 31.2618 31.2654 30.2588 32.5 30.2588ZM41.6384 35.6201L42 34.1725L40.4709 33.428C40.5484 32.7507 40.5432 32.089 40.4502 31.4376L41.969 30.631L41.5609 29.1989L39.8562 29.3178C39.5875 28.7129 39.2518 28.139 38.8437 27.6169L39.7632 26.1434L38.6939 25.1094L37.2629 26.0762C36.7412 25.6936 36.1678 25.3731 35.5479 25.1249L35.6098 23.3619L34.1634 23L33.3885 24.582C32.7376 24.5148 32.0867 24.5252 31.4565 24.6131L30.6196 23.031L29.1887 23.4395L29.3127 25.2283C28.7289 25.4868 28.1813 25.8177 27.6751 26.2054L26.1357 25.2386L25.1025 26.3088L26.115 27.8082C25.7482 28.3148 25.4331 28.8629 25.1903 29.4574L23.3616 29.3902L23 30.8327L24.6324 31.634C24.5601 32.2699 24.5704 32.9059 24.6479 33.5211L23.031 34.3793L23.4391 35.8114L25.2471 35.6873C25.5003 36.2664 25.8206 36.8196 26.2028 37.3211L25.2368 38.8618L26.3061 39.8958L27.7887 38.898C28.3002 39.2754 28.8529 39.5959 29.4521 39.8493L29.3902 41.6381L30.8314 42L31.6063 40.4128C32.2624 40.4903 32.9133 40.4852 33.5487 40.4128L34.3752 41.9741L35.8061 41.5657L35.6873 39.8389C36.2917 39.5804 36.86 39.2444 37.3869 38.8463L38.8592 39.7717L39.8923 38.7015L38.9418 37.2849C39.3344 36.7576 39.665 36.1785 39.9233 35.5581L41.6384 35.6201Z" fill="#F9F9F9"/>
<path fill-rule="evenodd" clip-rule="evenodd" d="M52.4866 31.7632C53.6457 29.8242 54.8572 27.927 56.0622 26H61L55.8985 34.2689C54.9293 35.8559 54.3726 36.7448 54.2286 36.9417C53.685 37.6815 53.076 38.2006 52.3949 38.4869C51.609 38.827 50.5219 39 49.127 39H44.5822V35.6411H49.3432C49.651 35.6411 49.854 35.6173 49.9522 35.5755C50.0504 35.5278 50.1552 35.4204 50.26 35.2414L41 26.006H47.0773L52.4931 31.7692L52.4866 31.7632Z" fill="#F9F9F9"/>
<path fill-rule="evenodd" clip-rule="evenodd" d="M0 26H4.46V35.6396H8.76667V26H13.2333V35.6396H17.54V26H22V39H0V26Z" fill="#F9F9F9"/>
<path fill-rule="evenodd" clip-rule="evenodd" d="M3.26486 14.831H11.5438C11.9417 14.831 12.2448 14.9027 12.4595 15.0579C12.6742 15.2071 12.7753 15.4936 12.7753 15.8995C12.7753 16.55 12.3648 16.8783 11.5438 16.8783C7.69168 16.8783 3.85215 16.8724 0 16.8724V20H12.7753C14.2845 20 15.3707 19.7254 16.0212 19.1823C16.6716 18.6332 17 17.708 17 16.4008C17 14.8848 16.3685 13.8581 15.0992 13.3269C15.497 13.1538 15.8317 12.8434 16.097 12.3779C16.3685 11.9183 16.5011 11.3512 16.5011 10.6708C16.5011 9.13085 16.0527 8.09229 15.156 7.54316C14.5561 7.17906 13.5962 7 12.2764 7H0V10.1515C3.90899 10.1515 7.80535 10.1515 11.7207 10.1515C12.068 10.1515 12.3269 10.2172 12.51 10.3545C12.6869 10.4858 12.7753 10.7126 12.7753 11.023C12.7753 11.3333 12.6805 11.5482 12.4974 11.6855C12.3143 11.8287 12.049 11.8944 11.7207 11.8944H3.26486V14.8191V14.831Z" fill="#F9F9F9"/>
<path fill-rule="evenodd" clip-rule="evenodd" d="M92.0268 16.65V10.3679H84.3657C84.3657 12.1176 84.2807 13.5508 84.1171 14.6674C83.9535 15.7841 83.7442 16.4469 83.489 16.65H92.0268ZM78.772 16.65C78.772 16.65 78.8309 16.65 78.857 16.638L80.0543 16.6798L81.016 13.1925L79.8646 12.6789C79.8973 12.1355 79.9235 11.5145 79.9431 10.8218L81.0029 10.3082L79.9889 7.06569V7H96.4102V16.644H98V20H79.158L78 18.4773V16.644H78.772V16.65Z" fill="#F9F9F9"/>
<path fill-rule="evenodd" clip-rule="evenodd" d="M44.2279 10.1575H51.7294C52.0769 10.1575 52.3361 10.2231 52.5193 10.3604C52.7026 10.4917 52.7911 10.7185 52.7911 11.0289C52.7911 11.3393 52.6963 11.5542 52.513 11.6915C52.3297 11.8347 52.0706 11.9004 51.7357 11.9004H44.2342V10.1575H44.2279ZM40 7V20H52.7848C54.3015 20 55.3822 19.7254 56.0331 19.1823C56.6145 18.6928 56.9368 17.9109 57 16.8306L55.5907 16.9201L54.548 13.4642L55.7677 12.8494C55.8877 12.7181 56.0078 12.5569 56.1089 12.3779C56.2669 12.1093 56.3807 11.8049 56.4439 11.4646L54.5353 10.5813L55.3126 7.63866C55.2684 7.60882 55.2178 7.57897 55.1673 7.54316C54.5669 7.17906 53.6 7 52.2855 7H40ZM44.2279 14.8251H51.5524C51.9442 14.8251 52.2539 14.8967 52.4625 15.0519C52.6773 15.2011 52.7784 15.4876 52.7784 15.8935C52.7784 16.5441 52.3677 16.8724 51.5524 16.8724H44.2279V14.8191V14.8251Z" fill="#F9F9F9"/>
<path fill-rule="evenodd" clip-rule="evenodd" d="M27.8242 9.93278H27.1695L24.8686 14.4517H30.1123L27.8305 9.93278H27.8242ZM23.8453 7H31.1547L38 20H33.0297L31.714 17.8154H23.286L21.9703 20H17L23.8453 7Z" fill="#F9F9F9"/>
</svg>
